<svg width="8" height="8" viewBox="0 0 8 8" fill="none" xmlns="http://www.w3.org/2000/svg">
<path d="M3.91 0.00799992L4 2.78103e-08C4.11703 -3.89861e-05 4.23036 0.0409714 4.32026 0.115889C4.41016 0.190807 4.47094 0.294886 4.492 0.41L4.5 0.5V3.5H7.5C7.61703 3.49996 7.73036 3.54097 7.82026 3.61589C7.91016 3.69081 7.97094 3.79489 7.992 3.91L8 4C8.00004 4.11703 7.95903 4.23036 7.88411 4.32026C7.80919 4.41016 7.70511 4.47094 7.59 4.492L7.5 4.5H4.5V7.5C4.50004 7.61703 4.45903 7.73036 4.38411 7.82026C4.30919 7.91016 4.20511 7.97094 4.09 7.992L4 8C3.88297 8.00004 3.76964 7.95903 3.67974 7.88411C3.58984 7.80919 3.52906 7.70511 3.508 7.59L3.5 7.5V4.5H0.5C0.382974 4.50004 0.269643 4.45903 0.179741 4.38411C0.0898397 4.30919 0.0290645 4.20511 0.00799992 4.09L2.78103e-08 4C-3.89861e-05 3.88297 0.0409714 3.76964 0.115889 3.67974C0.190807 3.58984 0.294886 3.52906 0.41 3.508L0.5 3.5H3.5V0.5C3.49996 0.382974 3.54097 0.269643 3.61589 0.179741C3.69081 0.0898397 3.79489 0.0290645 3.91 0.00799992Z" fill="black"/>
</svg>
