<svg width="14" height="14" viewBox="0 0 14 14" fill="none" xmlns="http://www.w3.org/2000/svg">
<path d="M0 0.75C0 0.551088 0.0790175 0.360322 0.21967 0.21967C0.360322 0.0790175 0.551088 0 0.75 0H13.25C13.4489 0 13.6397 0.0790175 13.7803 0.21967C13.921 0.360322 14 0.551088 14 0.75C14 0.948912 13.921 1.13968 13.7803 1.28033C13.6397 1.42098 13.4489 1.5 13.25 1.5H0.75C0.551088 1.5 0.360322 1.42098 0.21967 1.28033C0.0790175 1.13968 0 0.948912 0 0.75Z" fill="black"/>
<path d="M0 4.75C0 4.55109 0.0790175 4.36032 0.21967 4.21967C0.360322 4.07902 0.551088 4 0.75 4H13.25C13.4489 4 13.6397 4.07902 13.7803 4.21967C13.921 4.36032 14 4.55109 14 4.75C14 4.94891 13.921 5.13968 13.7803 5.28033C13.6397 5.42098 13.4489 5.5 13.25 5.5H0.75C0.551088 5.5 0.360322 5.42098 0.21967 5.28033C0.0790175 5.13968 0 4.94891 0 4.75Z" fill="black"/>
<path d="M0 8.75C0 8.55109 0.0790175 8.36032 0.21967 8.21967C0.360322 8.07902 0.551088 8 0.75 8H13.25C13.4489 8 13.6397 8.07902 13.7803 8.21967C13.921 8.36032 14 8.55109 14 8.75C14 8.94891 13.921 9.13968 13.7803 9.28033C13.6397 9.42098 13.4489 9.5 13.25 9.5H0.75C0.551088 9.5 0.360322 9.42098 0.21967 9.28033C0.0790175 9.13968 0 8.94891 0 8.75Z" fill="black"/>
<path d="M0 12.75C0 12.5511 0.0790175 12.3603 0.21967 12.2197C0.360322 12.079 0.551088 12 0.75 12H13.25C13.4489 12 13.6397 12.079 13.7803 12.2197C13.921 12.3603 14 12.5511 14 12.75C14 12.9489 13.921 13.1397 13.7803 13.2803C13.6397 13.421 13.4489 13.5 13.25 13.5H0.75C0.551088 13.5 0.360322 13.421 0.21967 13.2803C0.0790175 13.1397 0 12.9489 0 12.75Z" fill="black"/>
</svg>
