<svg width="9" height="9" viewBox="0 0 9 9" fill="none" xmlns="http://www.w3.org/2000/svg">
<path d="M1.2 0.19L4.5 3.49L7.8 0.2C7.86497 0.13389 7.94296 0.0819802 8.02902 0.0475546C8.11509 0.013129 8.20736 -0.0030638 8.3 1.34227e-07C8.48179 0.0117645 8.65308 0.0892913 8.78189 0.218104C8.91071 0.346918 8.98823 0.518211 9 0.7C9.0009 0.789382 8.98364 0.878016 8.94926 0.960527C8.91488 1.04304 8.8641 1.11771 8.8 1.18L5.49 4.5L8.8 7.82C8.93 7.946 9.002 8.12 9 8.3C8.98823 8.48179 8.91071 8.65308 8.78189 8.7819C8.65308 8.91071 8.48179 8.98824 8.3 9C8.20736 9.00306 8.11509 8.98687 8.02902 8.95245C7.94296 8.91802 7.86497 8.86611 7.8 8.8L4.5 5.51L1.21 8.8C1.14503 8.86611 1.06704 8.91802 0.980977 8.95245C0.894913 8.98687 0.802642 9.00306 0.709999 9C0.524819 8.99036 0.349774 8.91246 0.218655 8.78134C0.0875352 8.65022 0.00963764 8.47518 -1.31586e-06 8.29C-0.000906118 8.20062 0.0163547 8.11198 0.0507342 8.02947C0.0851136 7.94696 0.135895 7.8723 0.199999 7.81L3.51 4.5L0.189999 1.18C0.1277 1.11686 0.0787667 1.04182 0.0461217 0.959347C0.0134767 0.876876 -0.00221004 0.78867 -1.31586e-06 0.7C0.011763 0.518211 0.0892898 0.346918 0.218103 0.218104C0.346916 0.0892913 0.51821 0.0117645 0.699999 1.34227e-07C0.791921 -0.00436583 0.883757 0.0102514 0.969781 0.0429406C1.05581 0.0756298 1.13417 0.12569 1.2 0.19V0.19Z" fill="white"/>
</svg>
